<svg xmlns="http://www.w3.org/2000/svg" viewBox="0 0 750 748.41"><defs><style>.cls-1{fill:#c3222c;}</style></defs><title>Recurso 2</title><g id="Capa_2" data-name="Capa 2"><g id="Capa_1-2" data-name="Capa 1"><path class="cls-1" d="M148.94,80.74c-1.79,2.89-3.31,6-5.41,8.62C110.82,130.47,90.27,177,82.69,228.9c-12.63,86.67,8.88,164.9,63.87,232.3,48.39,59.31,111.67,95,188.38,105,9.77,1.27,19.68,1.47,29.51,2.37,8.65.8,13.35-3.38,16.71-11.07,23.51-53.8,16.8-104-19.28-149.64-11.89-15-27.94-26.7-41.69-40.31C269,317,246.82,254.73,251.88,183.87c3.49-48.92,20.84-94,55.06-130.29,16.43-17.44,35.85-32.1,54.2-47.67,3.34-2.83,8.1-4,12.2-5.91l2.3,2c-1.3,3.82-2.2,7.85-4,11.45-30.1,61.63-14.34,132.65,39.14,175.42,48.33,38.64,78.44,88.6,86.3,149.66C508,423.13,480.5,494.38,415,550.06c-7.07,6-14.63,11.41-21.46,17.91,76.06-4.68,141.43-33.8,193.89-88.48,52.12-54.32,80.57-119.28,83-195.83,2.4-76.33-21.62-142.94-67.37-203.44,23.18,11.51,39.81,30,55.59,48.38,67.2,78.35,97.79,169.88,90.31,272.67C735.06,591.39,583.7,732,409.8,746.86c-100.14,8.54-189.9-18.11-268.11-80.11C62.28,603.8,15.87,520.34,3.15,419.91c-12.15-96,11-184.32,66.79-263.47,21.15-30,45.33-57.52,76.16-78Z"/></g></g></svg>